<svg width="800" height="600" xmlns="http://www.w3.org/2000/svg">
  <text x="10" y="20" font-family="sans-serif" font-size="20">Timeline for trace-ncudmjiz</text>
  <rect x="10" y="50" width="300" height="30" fill="#f0f0f0" stroke="#333"/>
  <text x="20" y="70" font-family="sans-serif" font-size="14">planning-v1 (STARTING)</text>
<rect x="10" y="90" width="300" height="30" fill="#f0f0f0" stroke="#333"/>
  <text x="20" y="110" font-family="sans-serif" font-size="14">planning-v1 (COMPLETED)</text>
<rect x="10" y="130" width="300" height="30" fill="#f0f0f0" stroke="#333"/>
  <text x="20" y="150" font-family="sans-serif" font-size="14">reasoning-v1 (STARTING)</text>
<rect x="10" y="170" width="300" height="30" fill="#f0f0f0" stroke="#333"/>
  <text x="20" y="190" font-family="sans-serif" font-size="14">reasoning-v1 (COMPLETED)</text>
<rect x="10" y="210" width="300" height="30" fill="#f0f0f0" stroke="#333"/>
  <text x="20" y="230" font-family="sans-serif" font-size="14">execution-v1 (STARTING)</text>
<rect x="10" y="250" width="300" height="30" fill="#f0f0f0" stroke="#333"/>
  <text x="20" y="270" font-family="sans-serif" font-size="14">execution-v1 (COMPLETED)</text>
<rect x="10" y="290" width="300" height="30" fill="#f0f0f0" stroke="#333"/>
  <text x="20" y="310" font-family="sans-serif" font-size="14">knowledge-v1 (STARTING)</text>
<rect x="10" y="330" width="300" height="30" fill="#f0f0f0" stroke="#333"/>
  <text x="20" y="350" font-family="sans-serif" font-size="14">knowledge-v1 (COMPLETED)</text>
<rect x="10" y="370" width="300" height="30" fill="#f0f0f0" stroke="#333"/>
  <text x="20" y="390" font-family="sans-serif" font-size="14">learning-v1 (STARTING)</text>
<rect x="10" y="410" width="300" height="30" fill="#f0f0f0" stroke="#333"/>
  <text x="20" y="430" font-family="sans-serif" font-size="14">learning-v1 (COMPLETED)</text>
<rect x="10" y="450" width="300" height="30" fill="#f0f0f0" stroke="#333"/>
  <text x="20" y="470" font-family="sans-serif" font-size="14">evolution-v1 (STARTING)</text>
<rect x="10" y="490" width="300" height="30" fill="#f0f0f0" stroke="#333"/>
  <text x="20" y="510" font-family="sans-serif" font-size="14">evolution-v1 (COMPLETED)</text>
<rect x="10" y="530" width="300" height="30" fill="#f0f0f0" stroke="#333"/>
  <text x="20" y="550" font-family="sans-serif" font-size="14">reasoning-v1 (STARTING)</text>
<rect x="10" y="570" width="300" height="30" fill="#f0f0f0" stroke="#333"/>
  <text x="20" y="590" font-family="sans-serif" font-size="14">reasoning-v1 (COMPLETED)</text>
<rect x="10" y="610" width="300" height="30" fill="#f0f0f0" stroke="#333"/>
  <text x="20" y="630" font-family="sans-serif" font-size="14">delivery-v1 (STARTING)</text>
</svg>